<?xml version="1.0" ?><!DOCTYPE svg  PUBLIC '-//W3C//DTD SVG 1.1//EN'  'http://www.w3.org/Graphics/SVG/1.1/DTD/svg11.dtd'><svg enable-background="new 0 0 512 512" height="512px" id="Layer_1" version="1.1" viewBox="0 0 512 512" width="512px" xml:space="preserve" xmlns="http://www.w3.org/2000/svg" xmlns:xlink="http://www.w3.org/1999/xlink"><g><path clip-rule="evenodd" d="M25.701,0h460.897C500.509,0,512,11.492,512,25.707v460.892   c0,13.91-11.491,25.401-25.401,25.401H25.701C11.492,512,0,500.509,0,486.599V25.707C0,11.492,11.492,0,25.701,0L25.701,0z    M285.184,67.441c-39.321,5.441-69.56,39.012-69.56,79.538v58.368h-58.368v68.046h58.368v172.075h69.56V273.393h58.368   l8.164-68.046c-22.074,0-44.458,0-66.532,0v-48.39c0-14.515,11.802-26.311,26.621-26.311h43.238V68.95l-37.802-1.509   C306.658,66.837,295.456,66.232,285.184,67.441L285.184,67.441z" fill="#010101" fill-rule="evenodd"/></g></svg>