<?xml version="1.0" ?><!DOCTYPE svg  PUBLIC '-//W3C//DTD SVG 1.1//EN'  'http://www.w3.org/Graphics/SVG/1.1/DTD/svg11.dtd'><svg enable-background="new 0 0 512 512" height="512px" id="Layer_1" version="1.1" viewBox="0 0 512 512" width="512px" xml:space="preserve" xmlns="http://www.w3.org/2000/svg" xmlns:xlink="http://www.w3.org/1999/xlink"><g><path clip-rule="evenodd" d="M25.701,0h460.897C500.509,0,512,11.492,512,25.707v460.892   c0,13.91-11.491,25.401-25.401,25.401H25.701C11.492,512,0,500.509,0,486.599V25.707C0,11.492,11.492,0,25.701,0L25.701,0z    M272.473,444.869c26.621,2.418,59.277-3.028,98.589-21.475v-65.623c-42.019,35.685-98.589,18.137-98.589-5.146v-131.25h87.717   v-57.763h-87.717V66.837h-55.34c-2.418,30.542-14.209,57.153-33.865,75.905c-9.373,8.469-20.565,15.729-33.565,20.87   c-2.729,0.904-5.446,1.813-8.474,2.718v55.045h42.04v135.188C183.268,408.575,221.07,440.332,272.473,444.869L272.473,444.869z" fill="#010101" fill-rule="evenodd"/></g></svg>